<svg width="25" height="24" viewBox="0 0 25 24" fill="none" xmlns="http://www.w3.org/2000/svg">
<path d="M12.6666 21.6501C17.9961 21.6501 22.3166 17.3296 22.3166 12.0001C22.3166 6.67055 17.9961 2.3501 12.6666 2.3501C7.33705 2.3501 3.0166 6.67055 3.0166 12.0001C3.0166 17.3296 7.33705 21.6501 12.6666 21.6501Z" stroke="#24FFBC" stroke-width="1.7"/>
<path d="M10.3306 8.57585C10.4525 8.2459 10.6451 7.94662 10.895 7.69905C11.1448 7.45147 11.4459 7.26158 11.7769 7.14273C12.108 7.02387 12.461 6.97893 12.8113 7.01104C13.1616 7.04316 13.5006 7.15156 13.8045 7.32864C14.1084 7.50572 14.3699 7.74718 14.5706 8.03607C14.7713 8.32496 14.9063 8.65427 14.9661 9.00089C15.026 9.34751 15.0092 9.70302 14.917 10.0425C14.8249 10.382 14.6595 10.6972 14.4326 10.9659L13.3576 12.0699C13.0316 12.3919 12.5926 12.8299 12.5926 13.6139V13.9779" stroke="#24FFBC" stroke-width="1.7" stroke-linecap="round"/>
<path d="M12.5935 17.768C13.0817 17.768 13.4775 17.3722 13.4775 16.884C13.4775 16.3958 13.0817 16 12.5935 16C12.1053 16 11.7095 16.3958 11.7095 16.884C11.7095 17.3722 12.1053 17.768 12.5935 17.768Z" fill="#24FFBC"/>
</svg>
