<svg width="25" height="24" viewBox="0 0 25 24" fill="none" xmlns="http://www.w3.org/2000/svg">
<path fill-rule="evenodd" clip-rule="evenodd" d="M10.8335 2.33497L3.3335 7.50997C2.7085 7.94697 2.3335 8.62597 2.3335 9.34997V19.7C2.3335 20.965 3.4585 22 4.8335 22H19.8335C21.2085 22 22.3335 20.965 22.3335 19.7V9.34997C22.3335 8.62597 21.9585 7.94697 21.3335 7.50997L13.8335 2.33497C13.39 2.03704 12.8678 1.87793 12.3335 1.87793C11.7992 1.87793 11.277 2.03704 10.8335 2.33497ZM7.6495 14.366C7.56659 14.2895 7.4693 14.2304 7.36329 14.1919C7.25728 14.1534 7.14467 14.1364 7.03203 14.1419C6.91938 14.1473 6.80895 14.1752 6.70717 14.2237C6.60539 14.2723 6.51429 14.3407 6.43919 14.4248C6.36408 14.5089 6.30647 14.6072 6.2697 14.7138C6.23294 14.8204 6.21776 14.9333 6.22505 15.0458C6.23234 15.1583 6.26195 15.2683 6.31216 15.3693C6.36237 15.4703 6.43217 15.5603 6.5175 15.634C8.11649 17.065 10.1877 17.8548 12.3335 17.852C14.5665 17.852 16.6055 17.012 18.1495 15.634C18.2349 15.5603 18.3047 15.4703 18.3549 15.3693C18.4051 15.2683 18.4347 15.1583 18.442 15.0458C18.4493 14.9333 18.4341 14.8204 18.3973 14.7138C18.3606 14.6072 18.3029 14.5089 18.2278 14.4248C18.1527 14.3407 18.0616 14.2723 17.9599 14.2237C17.8581 14.1752 17.7476 14.1473 17.635 14.1419C17.5224 14.1364 17.4097 14.1534 17.3037 14.1919C17.1977 14.2304 17.1004 14.2895 17.0175 14.366C15.73 15.5187 14.0617 16.1548 12.3335 16.152C10.5335 16.152 8.8935 15.477 7.6495 14.366Z" fill="#F5F5F5"/>
<mask id="mask0_27_98" style="mask-type:alpha" maskUnits="userSpaceOnUse" x="2" y="1" width="21" height="21">
<path fill-rule="evenodd" clip-rule="evenodd" d="M10.8335 2.33497L3.3335 7.50997C2.7085 7.94697 2.3335 8.62597 2.3335 9.34997V19.7C2.3335 20.965 3.4585 22 4.8335 22H19.8335C21.2085 22 22.3335 20.965 22.3335 19.7V9.34997C22.3335 8.62597 21.9585 7.94697 21.3335 7.50997L13.8335 2.33497C13.39 2.03704 12.8678 1.87793 12.3335 1.87793C11.7992 1.87793 11.277 2.03704 10.8335 2.33497ZM7.6495 14.366C7.56659 14.2895 7.4693 14.2304 7.36329 14.1919C7.25728 14.1534 7.14467 14.1364 7.03203 14.1419C6.91938 14.1473 6.80895 14.1752 6.70717 14.2237C6.60539 14.2723 6.51429 14.3407 6.43919 14.4248C6.36408 14.5089 6.30647 14.6072 6.2697 14.7138C6.23294 14.8204 6.21776 14.9333 6.22505 15.0458C6.23234 15.1583 6.26195 15.2683 6.31216 15.3693C6.36237 15.4703 6.43217 15.5603 6.5175 15.634C8.11649 17.065 10.1877 17.8548 12.3335 17.852C14.5665 17.852 16.6055 17.012 18.1495 15.634C18.2349 15.5603 18.3047 15.4703 18.3549 15.3693C18.4051 15.2683 18.4347 15.1583 18.442 15.0458C18.4493 14.9333 18.4341 14.8204 18.3973 14.7138C18.3606 14.6072 18.3029 14.5089 18.2278 14.4248C18.1527 14.3407 18.0616 14.2723 17.9599 14.2237C17.8581 14.1752 17.7476 14.1473 17.635 14.1419C17.5224 14.1364 17.4097 14.1534 17.3037 14.1919C17.1977 14.2304 17.1004 14.2895 17.0175 14.366C15.73 15.5187 14.0617 16.1548 12.3335 16.152C10.5335 16.152 8.8935 15.477 7.6495 14.366Z" fill="#0057FF"/>
</mask>
<g mask="url(#mask0_27_98)">
<path d="M3.3333 7.51007L2.3683 6.11006L2.3583 6.11706L3.3333 7.51007ZM10.8333 2.33506L9.8713 0.934064L9.8683 0.936064L10.8333 2.33506ZM21.3333 7.51007L22.3073 6.11706L22.2983 6.11106L21.3333 7.51007ZM13.8333 2.33506L14.7993 0.935064L14.7953 0.934064L13.8333 2.33506ZM6.5173 15.6341L5.3833 16.9021L6.5163 15.6341H6.5173ZM4.2983 8.91006L11.7983 3.73506L9.8693 0.936064L2.3693 6.11106L4.2993 8.90907L4.2983 8.91006ZM4.0333 9.35007C4.0333 9.23007 4.0963 9.05106 4.3073 8.90306L2.3583 6.11706C1.3193 6.84306 0.633301 8.02207 0.633301 9.35007H4.0333ZM4.0333 19.7001V9.35007H0.633301V19.7001H4.0333ZM4.8333 20.3001C4.60715 20.3039 4.38778 20.2229 4.2183 20.0731C4.16292 20.0275 4.1178 19.9707 4.08592 19.9064C4.05404 19.8421 4.0361 19.7718 4.0333 19.7001H0.633301C0.633301 22.0351 2.6553 23.7001 4.8333 23.7001V20.3001ZM19.8333 20.3001H4.8333V23.7001H19.8333V20.3001ZM20.6333 19.7001C20.6333 19.8101 20.5863 19.9461 20.4483 20.0731C20.2789 20.2229 20.0595 20.3039 19.8333 20.3001V23.7001C22.0113 23.7001 24.0333 22.0351 24.0333 19.7001H20.6333ZM20.6333 9.35007V19.7001H24.0333V9.35007H20.6333ZM20.3593 8.90306C20.5703 9.05106 20.6333 9.22907 20.6333 9.35007H24.0333C24.0333 8.02207 23.3463 6.84306 22.3073 6.11706L20.3593 8.90306ZM12.8673 3.73406L20.3673 8.90907L22.2983 6.11106L14.7983 0.936064L12.8683 3.73406H12.8673ZM11.7953 3.73606C11.9556 3.63243 12.1425 3.57731 12.3333 3.57731C12.5242 3.57731 12.711 3.63243 12.8713 3.73606L14.7953 0.934064C14.0686 0.441819 13.2111 0.178711 12.3333 0.178711C11.4556 0.178711 10.598 0.441819 9.8713 0.934064L11.7953 3.73606ZM7.7173 15.5661C7.56717 15.7342 7.35642 15.8358 7.13138 15.8486C6.90635 15.8613 6.68546 15.7842 6.5173 15.6341L8.7823 13.0981C8.27795 12.6477 7.61537 12.4161 6.94027 12.4542C6.26517 12.4922 5.63282 12.7969 5.1823 13.3011L7.7173 15.5661ZM7.6493 14.3661C7.9993 14.6791 8.0293 15.2161 7.7173 15.5661L5.1823 13.3011C4.73192 13.8055 4.4993 14.468 4.53737 15.1431C4.57544 15.8182 4.88008 16.4506 5.3843 16.9011L7.6493 14.3661ZM12.3333 16.1521C10.5333 16.1521 8.8933 15.4771 7.6493 14.3661L5.3833 16.9021C7.29407 18.6114 9.7696 19.555 12.3333 19.5521V16.1521ZM17.0173 14.3661C15.7298 15.5188 14.0615 16.1549 12.3333 16.1521V19.5521C15.0003 19.5521 17.4383 18.5481 19.2823 16.9021L17.0173 14.3661ZM16.9493 15.5661C16.7992 15.3979 16.7221 15.1771 16.7348 14.952C16.7476 14.727 16.8492 14.5162 17.0173 14.3661L19.2823 16.9021C19.7866 16.4516 20.0912 15.8192 20.1293 15.1441C20.1673 14.469 19.9357 13.8065 19.4853 13.3021L16.9493 15.5661ZM18.1493 15.6341C17.9812 15.7842 17.7603 15.8613 17.5353 15.8486C17.3102 15.8358 17.0995 15.7342 16.9493 15.5661L19.4853 13.3011C19.0348 12.7969 18.4025 12.4922 17.7274 12.4542C17.0523 12.4161 16.3887 12.6477 15.8843 13.0981L18.1493 15.6341ZM12.3333 17.8521C14.5663 17.8521 16.6053 17.0131 18.1493 15.6341L15.8843 13.0981C14.9085 13.9725 13.6436 14.4548 12.3333 14.4521V17.8521ZM6.5173 15.6341C8.11629 17.0651 10.1875 17.8549 12.3333 17.8521V14.4521C11.0231 14.4548 9.75814 13.9725 8.7823 13.0981L6.5173 15.6341Z" fill="#F5F5F5"/>
</g>
</svg>
